PathFileType	3	(X/Y/Z)	D:\Vicon Database\Healthy Subjects\S0040\Jan. 30, 2020\Force Plate Walk 9.trc
DataRate	CameraRate	NumFrames	NumMarkers	Units	OrigDataRate	OrigDataStartFrame	OrigNumFrames
100.0	100.0	4	53	mm	100.0	330	299	
Frame#	Time	right_foot_cluster2			right_foot_cluster3			sternum_cluster1			sternum_cluster2			sternum_cluster3			left_asis			right_asis			left_psis			right_psis			sacrum_cluster1			sacrum_cluster2			sacrum_cluster3			left_lat_femoral_epicondyle			left_anterior_thigh15			left_anterior_thigh25			left_anterior_thigh50			left_lateral_thigh25			left_lateral_thigh50			left_thigh_cluster1			left_thigh_cluster2			left_thigh_cluster3			left_fibular_head			left_tibial_tuberosity			left_anterior_shank30			left_lateral_malleolus			left_shank_cluster1			left_shank_cluster2			left_shank_cluster3			left_heel			left_metatarsal2			left_foot_cluster1			left_foot_cluster2			left_foot_cluster3			right_lat_femoral_epicondyle			right_anterior_thigh15			right_anterior_thigh25			right_anterior_thigh50			right_lateral_thigh25			right_lateral_thigh50			right_thigh_cluster1			right_thigh_cluster2			right_thigh_cluster3			right_fibular_head			right_tibial_tuberosity			right_lateral_distal_shank			right_anterior_shank30			right_lateral_malleolus			right_shank_cluster1			right_shank_cluster2			right_shank_cluster3			right_heel			right_metatarsal2			right_foot_cluster1			
		X1	Y1	Z1	X2	Y2	Z2	X3	Y3	Z3	X4	Y4	Z4	X5	Y5	Z5	X6	Y6	Z6	X7	Y7	Z7	X8	Y8	Z8	X9	Y9	Z9	X10	Y10	Z10	X11	Y11	Z11	X12	Y12	Z12	X13	Y13	Z13	X14	Y14	Z14	X15	Y15	Z15	X16	Y16	Z16	X17	Y17	Z17	X18	Y18	Z18	X19	Y19	Z19	X20	Y20	Z20	X21	Y21	Z21	X22	Y22	Z22	X23	Y23	Z23	X24	Y24	Z24	X25	Y25	Z25	X26	Y26	Z26	X27	Y27	Z27	X28	Y28	Z28	X29	Y29	Z29	X30	Y30	Z30	X31	Y31	Z31	X32	Y32	Z32	X33	Y33	Z33	X34	Y34	Z34	X35	Y35	Z35	X36	Y36	Z36	X37	Y37	Z37	X38	Y38	Z38	X39	Y39	Z39	X40	Y40	Z40	X41	Y41	Z41	X42	Y42	Z42	X43	Y43	Z43	X44	Y44	Z44	X45	Y45	Z45	X46	Y46	Z46	X47	Y47	Z47	X48	Y48	Z48	X49	Y49	Z49	X50	Y50	Z50	X51	Y51	Z51	X52	Y52	Z52	X53	Y53	Z53	
330	3.29	2321.8123	186.73927	-251.13773	2323.032	186.48729	-288.53702	2663.4543	1422.5953	-159.82547	2651.4832	1394.7712	-152.5901	2657.3506	1397.108	-190.21327	2680.915	1040.7244	-40.361301	2697.948	1058.1357	-289.82751	2849.0103	1070.7698	-84.288925	2860.751	1071.9327	-201.21162	2862.1409	1127.4929	-147.90472	2869.8523	1102.3649	-159.13411	2868.4653	1096.8413	-120.00393	2918.5281	555.40967	-27.281136	2799.613	593.1853	-78.168396	2744.0305	665.4494	-59.896084	2693.6753	796.89209	-36.651978	2857.2488	696.13849	-2.5229313	2793.4026	827.9809	26.804823	2814.874	786.73846	31.632635	2827.3013	760.23511	27.564825	2789.5815	756.13043	31.105949	2944.9744	477.90662	-22.327206	2897.4597	450.68884	-77.006355	3004.0491	222.77715	-92.003098	3092.8767	130.37836	-67.50061	2916.0823	400.15173	-106.12352	2919.2278	373.01233	-98.371658	2934.9604	378.64832	-133.85817	3175.9795	110.81363	-100.92339	2961.345	64.280365	-104.53469	3009.563	124.00735	-96.415619	2990.2939	102.05504	-87.435112	2984.8979	107.63531	-125.06622	2584.8936	541.01093	-307.18811	2540.1729	648.68719	-251.51837	2555.6299	726.63031	-252.61351	2605.5234	844.01068	-259.98334	2648.8188	684.96515	-335.37427	2704.2126	823.68848	-359.72885	2691.7407	771.31738	-365.64343	2671.3611	750.53223	-362.06268	2706.99	735.79028	-354.72571	2566.9531	478.6835	-311.14249	2509.3987	491.27408	-267.6449	2469.3118	226.12465	-305.64005	2431.2158	257.67999	-261.32437	2417.5952	125.19582	-293.05835	2492.8394	428.5621	-215.31586	2486.8276	400.39151	-208.5611	2465.8232	408.2753	-238.13905	2463.0457	56.052547	-253.95903	2278.6968	173.43922	-259.74979	2349.9155	186.98874	-260.29965
331	3.3	2306.7117	185.2058	-250.68333	2308.3794	184.33859	-288.16232	2648.6887	1420.9111	-160.58426	2636.916	1392.958	-153.61258	2642.1848	1395.4523	-191.21814	2665.5073	1038.7915	-41.473465	2682.4548	1056.5609	-291.24899	2833.4922	1068.6912	-85.589218	2845.292	1069.8904	-202.44659	2846.7834	1125.3671	-149.08084	2854.4653	1100.3425	-160.33377	2852.8516	1094.6769	-121.23057	2905.5959	555.05188	-27.886793	2786.1023	591.50134	-78.754585	2729.9688	663.578	-60.4431	2678.9871	794.96448	-37.376923	2843.2581	695.15167	-3.4259934	2778.8911	826.69672	25.606262	2800.136	785.5191	30.828953	2813.0625	759.13605	26.396147	2775.4055	754.83472	30.219999	2933.1729	477.98056	-22.768082	2886.0361	449.34738	-77.386658	2999.1721	223.88914	-92.285728	3089.2468	133.54538	-66.747261	2906.0503	399.35873	-106.54977	2910.8359	372.31906	-98.602852	2924.949	378.47629	-134.1402	3172.8186	116.47266	-100.29277	2959.9612	63.417515	-104.24405	3006.0503	124.70998	-95.671455	2987.3796	102.11852	-86.733376	2981.9626	107.84332	-124.53508	2568.2734	540.28284	-307.23779	2523.4028	648.45905	-252.58434	2539.0938	726.48395	-253.9408	2589.4873	843.43896	-261.55237	2631.9514	684.38611	-336.2789	2687.6096	822.75031	-361.3804	2674.9004	770.2749	-366.81213	2654.488	749.68158	-363.30887	2690.425	734.9425	-355.83582	2550.7756	476.9668	-310.64755	2493.0789	489.95734	-268.16605	2453.9204	224.03427	-303.75836	2415.4358	255.82098	-260.05991	2402.9561	122.91833	-290.392	2476.0081	427.50641	-215.2141	2470.1748	399.19131	-208.35077	2449.23	406.84665	-238.10933	2446.9937	53.754177	-250.00275	2263.6729	172.11711	-259.45233	2334.7449	185.32106	-259.71011
332	3.31	2294.2485	181.96431	-249.69142	2296.1221	180.62112	-287.11621	2633.916	1419.5956	-161.62402	2622.1357	1391.5719	-154.68967	2627.218	1394.1835	-192.36377	2650.0957	1036.9169	-42.910374	2666.4099	1055.4296	-292.54321	2817.7075	1066.8052	-86.955307	2829.3516	1067.9125	-203.76257	2831.0293	1123.4006	-150.3745	2838.7188	1098.3572	-161.63734	2837.01	1092.7305	-122.51497	2891.7141	554.44421	-28.479643	2772.2742	589.40594	-79.619606	2715.0271	661.99719	-60.872063	2663.7253	793.34271	-38.181599	2828.5139	694.0293	-4.3875165	2763.8477	825.3689	24.352724	2785.6772	784.552	29.162672	2798.2085	758.10663	25.284239	2760.6577	753.79309	29.083881	2920.0876	477.74384	-23.173159	2873.7988	447.75879	-77.747574	2992.3306	225.37944	-91.971878	3085.0764	137.19154	-65.719322	2894.9131	398.36838	-107.41553	2899.0283	371.47595	-98.587997	2915.0352	377.24432	-134.35677	3169.031	122.75366	-99.698929	2958.498	62.340015	-103.99421	3001.9739	125.41978	-94.865082	2984.0686	102.07344	-86.205948	2978.5977	107.97847	-123.98467	2551.1741	539.39722	-307.3035	2506.4011	648.77625	-254.10474	2522.5759	726.14923	-255.31178	2573.166	842.93353	-262.8273	2614.5276	683.78265	-336.83145	2670.9944	821.96619	-363.01025	2658.0691	769.10437	-368.26614	2637.8611	748.25421	-364.59894	2673.0586	733.67896	-356.6868	2534.3071	475.30356	-310.49573	2476.4087	488.36896	-268.40613	2440.8772	221.16676	-301.71213	2401.5627	252.83188	-258.73663	2390.8684	119.53819	-288.24142	2459.5593	425.75958	-215.12036	2454.0164	397.51642	-208.06129	2433.3477	404.36765	-238.17404	2435.2803	51.189873	-246.67371	2251.1995	168.54347	-258.65649	2322.3071	182.00574	-258.52499
333	3.32	2283.3906	177.03404	-247.59033	2285.5066	175.90948	-284.79111	2619.259	1418.4421	-162.99733	2607.2891	1390.5532	-155.84985	2612.8062	1393.0929	-193.47594	2633.894	1035.6709	-43.804131	2650.3105	1054.2603	-294.02469	2801.6809	1065.1381	-88.513374	2812.9631	1066.1805	-205.30754	2815.0366	1121.6333	-151.94962	2822.5642	1096.5488	-163.21147	2820.9407	1090.9208	-124.07581	2876.2634	553.42572	-29.456625	2756.0125	588.06262	-79.62265	2699.2341	660.47186	-61.320156	2648.1846	791.96307	-39.0247	2813.0447	692.88422	-5.4893122	2748.4253	824.24786	23.101521	2770.3569	783.38538	27.741119	2782.835	756.9884	24.009008	2745.228	752.72266	28.193214	2905.7813	477.3186	-23.736998	2860.0911	446.19803	-78.364998	2985.1128	226.98781	-91.742241	3080.1301	141.17653	-64.835121	2882.8669	397.03809	-107.87614	2888.823	370.33566	-98.827782	2903.7441	376.50259	-134.72446	3164.51	129.74353	-99.226501	2956.5945	61.190075	-103.63057	2997.3469	126.16803	-94.11142	2980.2124	102.04813	-85.375938	2974.7034	107.59153	-123.43068	2534.239	538.22968	-307.58569	2489.2688	649.20148	-256.05777	2506.0845	725.83887	-256.83975	2556.8115	842.26794	-263.75848	2597.0166	683.20319	-338.15524	2654.6462	821.54614	-364.88724	2641.1943	767.76056	-369.89322	2620.8743	747.49634	-366.15305	2655.6704	732.38397	-357.88693	2518.2954	473.34708	-310.11899	2459.8208	486.27652	-268.8801	2429.7888	217.61264	-299.77786	2389.3528	248.98991	-257.40887	2381.0752	116.26222	-285.98987	2443.7314	423.3114	-215.30705	2438.5227	395.15048	-207.84012	2417.8799	401.48816	-238.12114	2427.4583	50.578575	-243.93655	2240.7773	163.12816	-256.77554	2311.7656	177.65205	-256.06982
